<?xml version="1.0" encoding="utf-8" standalone="no"?>
<!DOCTYPE svg PUBLIC "-//W3C//DTD SVG 1.1//EN"
  "http://www.w3.org/Graphics/SVG/1.1/DTD/svg11.dtd">
<svg xmlns:xlink="http://www.w3.org/1999/xlink" width="669.6pt" height="55.44pt" viewBox="0 0 669.6 55.44" xmlns="http://www.w3.org/2000/svg" version="1.1">
 <metadata>
  <rdf:RDF xmlns:dc="http://purl.org/dc/elements/1.1/" xmlns:cc="http://creativecommons.org/ns#" xmlns:rdf="http://www.w3.org/1999/02/22-rdf-syntax-ns#">
   <cc:Work>
    <dc:type rdf:resource="http://purl.org/dc/dcmitype/StillImage"/>
    <dc:date>2025-05-12T22:43:07.294940</dc:date>
    <dc:format>image/svg+xml</dc:format>
    <dc:creator>
     <cc:Agent>
      <dc:title>Matplotlib v3.6.3, https://matplotlib.org/</dc:title>
     </cc:Agent>
    </dc:creator>
   </cc:Work>
  </rdf:RDF>
 </metadata>
 <defs>
  <style type="text/css">*{stroke-linejoin: round; stroke-linecap: butt}</style>
 </defs>
 <g id="figure_1">
  <g id="patch_1">
   <path d="M 0 55.44 
L 669.6 55.44 
L 669.6 0 
L 0 0 
z
" style="fill: #ffffff"/>
  </g>
  <g id="axes_1">
   <g id="line2d_1">
    <path d="M 30.436364 27.72 
L 45.075096 20.219973 
L 53.614356 16.117118 
L 59.713828 13.399676 
L 65.813299 10.908979 
L 71.912771 8.684465 
L 76.792348 7.12033 
L 81.671926 5.765044 
L 86.551503 4.632346 
L 91.43108 3.733722 
L 96.310658 3.078282 
L 101.190235 2.67267 
L 106.069812 2.520999 
L 110.94939 2.624807 
L 115.828967 2.983041 
L 120.708544 3.592069 
L 125.588122 4.445717 
L 130.467699 5.53533 
L 135.347276 6.849861 
L 140.226854 8.375983 
L 145.106431 10.098223 
L 151.205903 12.500039 
L 157.305374 15.142844 
L 164.62474 18.573169 
L 173.164001 22.832879 
L 203.661359 38.326078 
L 210.980725 41.646149 
L 217.080197 44.173466 
L 223.179668 46.440263 
L 228.059246 48.041853 
L 232.938823 49.437411 
L 237.8184 50.612788 
L 242.697978 51.556068 
L 247.577555 52.257687 
L 252.457132 52.710532 
L 257.33671 52.910012 
L 262.216287 52.854105 
L 267.095864 52.543376 
L 271.975442 51.980978 
L 276.855019 51.17261 
L 281.734596 50.12647 
L 286.614174 48.853163 
L 291.493751 47.365598 
L 296.373328 45.678858 
L 302.4728 43.316572 
L 308.572272 40.707334 
L 315.891638 37.308677 
L 324.430898 33.073148 
L 340.289525 24.87033 
L 351.268574 19.31675 
L 358.58794 15.836371 
L 364.687411 13.139722 
L 370.786883 10.673933 
L 376.886355 8.478049 
L 381.765932 6.939195 
L 386.645509 5.611026 
L 391.525087 4.507008 
L 396.404664 3.638333 
L 401.284241 3.013809 
L 406.163819 2.639767 
L 411.043396 2.52 
L 415.922973 2.655722 
L 420.802551 3.045556 
L 425.682128 3.685551 
L 430.561705 4.569218 
L 435.441283 5.687598 
L 440.32086 7.029352 
L 445.200437 8.580877 
L 451.299909 10.791121 
L 457.399381 13.269412 
L 463.498852 15.976512 
L 470.818218 19.466489 
L 480.577373 24.397956 
L 503.755365 36.272656 
L 511.074731 39.743298 
L 517.174203 42.429391 
L 523.273675 44.882578 
L 529.373146 47.064017 
L 534.252724 48.590139 
L 539.132301 49.90467 
L 544.011878 50.994283 
L 548.891456 51.847931 
L 553.771033 52.456959 
L 558.65061 52.815193 
L 563.530188 52.919001 
L 568.409765 52.76733 
L 573.289342 52.361718 
L 578.16892 51.706278 
L 583.048497 50.807654 
L 587.928074 49.674956 
L 592.807652 48.31967 
L 597.687229 46.755535 
L 603.786701 44.531021 
L 609.886172 42.040324 
L 615.985644 39.322882 
L 623.30501 35.823444 
L 633.064165 30.884709 
L 639.163636 27.72 
L 639.163636 27.72 
" clip-path="url(#pdc3585aa47)" style="fill: none; stroke: #1db954; stroke-width: 2; stroke-linecap: square"/>
   </g>
  </g>
 </g>
 <defs>
  <clipPath id="pdc3585aa47">
   <rect x="0" y="-0" width="669.6" height="55.44"/>
  </clipPath>
 </defs>
</svg>
